<svg width="111" height="34" xmlns="http://www.w3.org/2000/svg" xmlns:xlink="http://www.w3.org/1999/xlink" xmlns:svgjs="http://svgjs.com/svgjs" viewBox="133 70 111 34"><svg width="17" height="17" xmlns="http://www.w3.org/2000/svg" xmlns:xlink="http://www.w3.org/1999/xlink" xmlns:svgjs="http://svgjs.com/svgjs" fill="#edd900" x="134" y="77"><svg xmlns="http://www.w3.org/2000/svg" xmlns:xlink="http://www.w3.org/1999/xlink" width="17" height="17"><path paint-order="stroke fill markers" fill-rule="evenodd" d="M8.504 16.3A7.675 7.675 0 0 1 .822 8.618 7.675 7.675 0 0 1 8.504.935a7.675 7.675 0 0 1 7.682 7.683A7.675 7.675 0 0 1 8.504 16.3z"/></svg></svg><svg width="78" height="32" xmlns="http://www.w3.org/2000/svg" xmlns:xlink="http://www.w3.org/1999/xlink" xmlns:svgjs="http://svgjs.com/svgjs" x="166" y="72"><svg xmlns="http://www.w3.org/2000/svg" xmlns:xlink="http://www.w3.org/1999/xlink" width="78" height="32"><path paint-order="stroke fill markers" fill-rule="evenodd" d="M42.187 16.794c-3.669 1.584-4.627 1.63-6.44.29-1.68.995-3.418 1.738-4.929-.31-.603.312-1.128.637-1.692.867-2.43.988-4.03.249-4.844-2.207-2.448-.05-2.86.31-4.206-2.967-.428.926-.794 1.74-1.178 2.546-.33.692-.692 1.369-1.022 2.061-.256.538-.571 1.013-1.242.958-.679-.056-1.123-.442-1.28-1.128-.021-.096-.083-.183-.207-.442-.797.65-1.608 1.232-2.311 1.926-.236.233-.228.743-.276 1.134-.23 1.878-.351 3.774-.674 5.636-.756 4.362-4.557 6.305-7.328 6.62-1.95.223-3.753-.886-3.961-2.57-.11-.89.022-1.834.18-2.729.095-.531.401-1.051.705-1.515 1.218-1.857 2.675-3.502 4.493-4.795a94.245 94.245 0 0 1 3.546-2.43c.641-.412.92-.92.742-1.855-.614.427-1.168.806-1.717 1.194-1.262.89-2.63 1.333-4.187 1.042-1.134-.212-1.574-.686-1.7-1.822-.111-1.005.12-1.957.562-2.825 1.648-3.235 4.108-5.471 7.795-6.081 1.444-.239 2.853-.16 4.04.81-1.742 2.07-1.385 4.63-2.082 7.197.56-.228.78-.335 1.013-.41 1.122-.36 1.753-1.056 1.893-2.292.097-.85.41-1.69.716-2.499.316-.839.556-1.025 1.459-.877.33.054.57.343.57.677v2.023c.422-.613.586-.963.847-1.21.548-.518 1.11-1.04 1.737-1.451.506-.333 1.176-.281 1.548.188.235.297.194.85.19 1.288-.003.295-.196.583-.234.884-.077.603-.227 1.267.457 1.64.506.275 1.577.046 2-.412.24-.261.398-.596.614-.882.818-1.082 1.803-1.986 3.087-2.452.937-.34 1.915-.794 2.88.071.228.203.672.176 1.02.228.878.131 1.09.32.952 1.184-.154.957-.448 1.892-.646 2.843-.12.58-.353 1.169-.48 1.693.711.51 1.453.275 1.926-.043.667-.451 1.41-.821 1.7-1.682a63.74 63.74 0 0 1 1.161-3.167c.463-1.168 1.173-1.584 2.441-1.326a.6.6 0 0 1 .458.759c-.169.56-.338 1.122-.509 1.684-.327 1.075-.707 2.136-.97 3.227-.23.948.245 1.347 1.198 1.116 1.574-.383 2.43-1.407 2.676-3.076.134-.908.379-1.8.58-2.697.12-.54.43-.91.964-1.097.898-.315 1.542.089 1.544 1.031 0 .455-.114.91-.174 1.365-.052.4-.101.8-.2 1.585.401-.542.595-.783.768-1.04.458-.677.839-1.422 1.38-2.022.388-.43.947-.802 1.5-.965.929-.275 1.652.316 1.6 1.295-.045.86-.311 1.707-.424 2.567-.093.706-.167 1.425-.129 2.132.03.543.453.832.988.638.667-.242 1.35-.508 1.923-.911.253-.178.348-.72.347-1.096-.005-2.429.496-4.785 1.003-7.134.394-1.827 1.095-3.53 2.58-4.774 1.03-.861 2.194-1.303 3.551-.965.932.23 1.186.533 1.279 1.47.105 1.052-.122 2.06-.59 2.979-.837 1.637-1.742 3.24-2.633 4.849-.265.478-.578.93-.7 1.59.365-.287.717-.592 1.097-.857 1.003-.697 1.96-1.491 3.042-2.032 1.122-.56 1.836.01 1.606 1.263-.141.772-.561 1.523-.983 2.205-.75 1.212-.92 1.511-.867 2.585.026.546.57.93 1.088.757a4.12 4.12 0 0 0 .5-.219c.83-.409 1.659-.812 2.015-1.774.456-1.229 1.176-2.306 2.22-3.076.766-.564 1.663-.964 2.533-1.368.679-.315 1.355-.306 2.028.176.303.217.77.214 1.165.29.923.178 1.158.438.982 1.354-.184.953-.49 1.882-.695 2.832-.081.38-.113.77-.148 1.185-.027.315.209.6.524.614 1.194.051 1.878-.87 2.735-1.518a.352.352 0 0 1 .542.169l.309.883a.673.673 0 0 1-.209.727c-.473.397-.956.82-1.484 1.173-1.743 1.167-2.889 1.027-4.522-.507-2.005 1.174-4.049 2.118-6.112.021-1.004.357-2.004.71-3.002 1.066-1.078.385-2.03.167-2.79-.674-.76-.838-.865-1.826-.437-2.857.27-.65.59-1.277 1.01-2.176-1.402.853-2.21 1.937-3.067 2.952-.493.584-.903 1.242-1.317 1.89-.916 1.434-1.493 1.43-2.378-.057-.867.291-1.73.612-2.61.87-1.773.521-2.618-.076-2.725-1.94-.049-.861-.008-1.727-.008-2.982-.636.986-1.088 1.69-1.544 2.39-.334.516-.677 1.026-1.01 1.542-1.063 1.647-1.934 1.657-3.136-.038zm-31.846 3.26c-.482.22-.715.3-.92.426-1.658 1.025-3.119 2.287-4.442 3.719-.85.918-1.418 1.98-1.76 3.177-.44 1.545.186 2.267 1.755 2.019 1.738-.274 2.963-1.26 3.817-2.761 1.112-1.955 1.378-4.105 1.55-6.58zm1.04-9.859a.526.526 0 0 0-.68-.6c-2.433.794-4.107 2.38-5.374 4.454-.317.519-.735 1.135-.27 1.819 1.825.83 5.932-3.57 6.323-5.673zM31 11.051c-1.93.246-3.81 2.479-3.68 4.191.07.94.883 1.39 1.607.785.48-.401.858-1.018 1.084-1.613.396-1.044.64-2.145.989-3.363zm40.556-.091c-2.09.46-3.764 2.448-3.666 4.203.02.356.242.86.519.997.285.142.86.048 1.112-.171.406-.352.759-.852.941-1.36.41-1.14.701-2.321 1.094-3.67zm-15.56.144c1.2-2.108 2.693-3.802 3.445-6.14.268-.628.543-1.432.37-1.937a.497.497 0 0 0-.747-.24c-2.347 1.552-2.68 5.353-3.069 8.317z"/></svg></svg><svg width="34" height="25" xmlns="http://www.w3.org/2000/svg" xmlns:xlink="http://www.w3.org/1999/xlink" xmlns:svgjs="http://svgjs.com/svgjs" x="133" y="70"><svg xmlns="http://www.w3.org/2000/svg" xmlns:xlink="http://www.w3.org/1999/xlink" width="34" height="25"><path paint-order="stroke fill markers" fill-rule="evenodd" d="M25.072 19.498c2.857.118 4.362-.831 5.283-3.21.093-.238.146-.492.249-.725.396-.895 1.064-1.249 1.808-.972.67.25 1.017.947.778 1.783-.195.683-.42 1.388-.787 1.987-1.488 2.426-3.59 3.875-6.526 3.883h-1.75c-.245.582-.453 1.15-.718 1.69-.35.712-.915.941-1.644.725-.63-.188-.96-.674-.834-1.437.108-.645.344-1.268.543-1.974-2.274-1.692-3.793-3.975-5.261-6.336a19.148 19.148 0 0 0-3.099-3.781c-1.729-1.628-3.852-1.965-6.143-1.282-3.524 1.05-4.624 4.618-4.006 7.186.607 2.522 1.939 4.57 4.722 5.071 2.739.493 5.035-.41 6.825-2.555.262-.313.464-.676.724-.991.388-.47.879-.522 1.36-.178.432.31.745.722.514 1.31-.092.237-.21.466-.34.685-2.111 3.573-5.975 5.153-10.169 4.012C2.772 23.346-.04 19.513.103 15.515c.19-5.293 4.76-8.74 8.787-8.743 3.143-.003 5.468 1.385 7.401 3.686.355.422.684.864 1.107 1.4 1.123-2.346 2.358-4.452 3.946-6.325 1.599-1.888 3.38-3.551 5.61-4.697 1.42-.73 2.908-.896 4.46-.82.574.03.983.29 1.175.821.186.515.146 1.042-.29 1.417-1.554 1.33-2.166 3.169-2.818 5.013-1.33 3.759-2.725 7.496-4.09 11.242-.103.283-.186.573-.32.99zm-2.668-.674L28.08 3.257c-4.562 2.931-7.202 6.861-8.944 11.645l3.268 3.922z"/></svg></svg><svg width="4" height="3" xmlns="http://www.w3.org/2000/svg" xmlns:xlink="http://www.w3.org/1999/xlink" xmlns:svgjs="http://svgjs.com/svgjs" fill="#9fab1d" x="204" y="77"><svg xmlns="http://www.w3.org/2000/svg" xmlns:xlink="http://www.w3.org/1999/xlink" width="4" height="3"><path paint-order="stroke fill markers" fill-rule="evenodd" d="M2.229.76C.952 1.008.103 1.559.217 2.129c.113.57.645.76 1.594.683.95-.076 1.747-.401 1.785-1.017.038-.616-.751-1.152-1.367-1.033z"/></svg></svg><svg width="9" height="10" xmlns="http://www.w3.org/2000/svg" xmlns:xlink="http://www.w3.org/1999/xlink" xmlns:svgjs="http://svgjs.com/svgjs" viewBox="138 81 9 10" x="138" y="81"><svg width="9" height="10" xmlns="http://www.w3.org/2000/svg" xmlns:xlink="http://www.w3.org/1999/xlink" xmlns:svgjs="http://svgjs.com/svgjs" fill="#0a0b07" x="138" y="81"><svg xmlns="http://www.w3.org/2000/svg" xmlns:xlink="http://www.w3.org/1999/xlink" width="9" height="10"><path paint-order="stroke fill markers" fill-rule="evenodd" d="M7.067.89c.194-.002.39.025.578.108.362.16.526.456.452.844-.1.525-.337 1.003-.581 1.468-.505.958-.65 2.026-.98 3.037-.309.946-.617 1.888-1.31 2.647-.995 1.091-2.002 1.29-3.288.586C1.26 9.21.618 8.778.235 8.064.09 7.796.002 7.51.013 7.214c.031-.764.158-1.518.444-2.228.273-.677.811-1.132 1.438-1.47 1.246-.673 2.512-1.308 3.728-2.034.236-.14.464-.296.702-.43.225-.127.472-.184.742-.161zM2.392 5.766c-.01.22.035.431.156.627.24.39.585.666.965.901.533.33 1.03.293 1.524-.093.512-.4.786-.949.992-1.548.23-.666.327-1.373.635-2.014.122-.254.268-.497.334-.776.075-.316-.032-.53-.339-.603-.247-.059-.497-.051-.726.096-.71.457-1.442.878-2.21 1.226-.952.432-1.316 1.193-1.331 2.184z"/></svg></svg><svg width="6" height="6" xmlns="http://www.w3.org/2000/svg" xmlns:xlink="http://www.w3.org/1999/xlink" xmlns:svgjs="http://svgjs.com/svgjs" fill="#fbfaf9" x="140" y="83"><svg xmlns="http://www.w3.org/2000/svg" xmlns:xlink="http://www.w3.org/1999/xlink" width="6" height="6"><path paint-order="stroke fill markers" fill-rule="evenodd" d="M.392 3.765c.015-.991.379-1.751 1.332-2.184.767-.348 1.5-.77 2.209-1.226.229-.147.479-.155.726-.096.307.073.414.287.34.603-.067.279-.213.522-.335.776-.308.641-.405 1.348-.635 2.014-.206.6-.48 1.148-.992 1.548-.494.386-.99.423-1.524.093-.38-.235-.724-.512-.965-.9a1.066 1.066 0 0 1-.156-.628zM4.363.488C4.197.48 4.052.54 3.91.615c-.214.114-.334.238-.063.428.14.099.139.214.032.351-.393.508-.77 1.029-1.169 1.532-.458.578-.923 1.153-1.441 1.68-.061.061-.113.147-.05.225.07.084.155.033.222-.025.12-.104.238-.21.355-.317.846-.771 1.651-1.573 2.075-2.672a.422.422 0 0 1 .32-.276c.166-.038.33-.095.439-.238a.644.644 0 0 0 .096-.628c-.061-.18-.212-.183-.362-.187z"/></svg></svg><svg width="4" height="5" xmlns="http://www.w3.org/2000/svg" xmlns:xlink="http://www.w3.org/1999/xlink" xmlns:svgjs="http://svgjs.com/svgjs" fill="#edd900" x="141" y="83"><svg xmlns="http://www.w3.org/2000/svg" xmlns:xlink="http://www.w3.org/1999/xlink" width="4" height="5"><path paint-order="stroke fill markers" fill-rule="evenodd" d="M3.363.488c.15.004.3.006.362.187a.643.643 0 0 1-.096.628c-.109.143-.273.2-.438.238a.422.422 0 0 0-.321.276c-.424 1.099-1.23 1.9-2.075 2.672-.117.106-.235.213-.355.317-.067.058-.151.11-.221.025-.064-.078-.012-.164.049-.225.518-.527.983-1.102 1.441-1.68.4-.503.776-1.024 1.169-1.532.107-.137.107-.252-.032-.35-.271-.191-.151-.315.063-.429.143-.075.288-.135.454-.127z"/></svg></svg></svg><svg width="62" height="4" xmlns="http://www.w3.org/2000/svg" xmlns:xlink="http://www.w3.org/1999/xlink" xmlns:svgjs="http://svgjs.com/svgjs" viewBox="182 94 62 4" x="182" y="94"><svg width="5" height="4" xmlns="http://www.w3.org/2000/svg" xmlns:xlink="http://www.w3.org/1999/xlink" xmlns:svgjs="http://svgjs.com/svgjs" fill="#9fab1d" x="182" y="94"><svg xmlns="http://www.w3.org/2000/svg" xmlns:xlink="http://www.w3.org/1999/xlink" width="5" height="4"><path paint-order="stroke fill markers" fill-rule="evenodd" d="M.925.704h.85l.694 1.124.693-1.124h.85v2.905h-.8V1.94l-.743 1.137h-.017L1.714 1.95v1.66H.925V.704z"/></svg></svg><svg width="4" height="4" xmlns="http://www.w3.org/2000/svg" xmlns:xlink="http://www.w3.org/1999/xlink" xmlns:svgjs="http://svgjs.com/svgjs" fill="#9fab1d" x="186" y="94"><svg xmlns="http://www.w3.org/2000/svg" xmlns:xlink="http://www.w3.org/1999/xlink" width="4" height="4"><path paint-order="stroke fill markers" fill-rule="evenodd" d="M.943.704h2.336v.684H1.74v.44h1.395v.635H1.74v.46H3.3v.686H.943V.704z"/></svg></svg><svg width="3" height="4" xmlns="http://www.w3.org/2000/svg" xmlns:xlink="http://www.w3.org/1999/xlink" xmlns:svgjs="http://svgjs.com/svgjs" fill="#9fab1d" x="190" y="94"><svg xmlns="http://www.w3.org/2000/svg" xmlns:xlink="http://www.w3.org/1999/xlink" width="3" height="4"><path paint-order="stroke fill markers" fill-rule="evenodd" d="M.126.704H1.5c.443 0 .75.116.946.315.17.166.257.39.257.676v.009c0 .444-.236.738-.597.892l.693 1.013h-.93l-.585-.88h-.008H.93v.88H.126V.704zm1.336 1.394c.274 0 .432-.133.432-.344v-.009c0-.228-.166-.344-.436-.344H.931v.697h.531z"/></svg></svg><svg width="4" height="4" xmlns="http://www.w3.org/2000/svg" xmlns:xlink="http://www.w3.org/1999/xlink" xmlns:svgjs="http://svgjs.com/svgjs" fill="#9fab1d" x="193" y="94"><svg xmlns="http://www.w3.org/2000/svg" xmlns:xlink="http://www.w3.org/1999/xlink" width="4" height="4"><path paint-order="stroke fill markers" fill-rule="evenodd" d="M.425 2.164v-.008c0-.847.652-1.51 1.532-1.51.593 0 .975.249 1.232.605l-.605.47c-.166-.208-.357-.341-.635-.341-.407 0-.693.344-.693.768v.008c0 .436.286.776.693.776.302 0 .481-.141.655-.353l.606.432c-.274.378-.643.655-1.286.655-.83 0-1.499-.634-1.499-1.502z"/></svg></svg><svg width="4" height="4" xmlns="http://www.w3.org/2000/svg" xmlns:xlink="http://www.w3.org/1999/xlink" xmlns:svgjs="http://svgjs.com/svgjs" fill="#9fab1d" x="196" y="94"><svg xmlns="http://www.w3.org/2000/svg" xmlns:xlink="http://www.w3.org/1999/xlink" width="4" height="4"><path paint-order="stroke fill markers" fill-rule="evenodd" d="M.97.704h2.337v.684h-1.54v.44H3.16v.635H1.767v.46h1.56v.686H.97V.704z"/></svg></svg><svg width="5" height="4" xmlns="http://www.w3.org/2000/svg" xmlns:xlink="http://www.w3.org/1999/xlink" xmlns:svgjs="http://svgjs.com/svgjs" fill="#9fab1d" x="199" y="94"><svg xmlns="http://www.w3.org/2000/svg" xmlns:xlink="http://www.w3.org/1999/xlink" width="5" height="4"><path paint-order="stroke fill markers" fill-rule="evenodd" d="M2.158.683h.776L4.17 3.609h-.863l-.213-.52h-1.12l-.207.52H.92L2.158.683zm.706 1.78l-.324-.826-.328.826h.652z"/></svg></svg><svg width="4" height="4" xmlns="http://www.w3.org/2000/svg" xmlns:xlink="http://www.w3.org/1999/xlink" xmlns:svgjs="http://svgjs.com/svgjs" fill="#9fab1d" x="203" y="94"><svg xmlns="http://www.w3.org/2000/svg" xmlns:xlink="http://www.w3.org/1999/xlink" width="4" height="4"><path paint-order="stroke fill markers" fill-rule="evenodd" d="M.868.704h1.374c.444 0 .75.116.946.315.17.166.257.39.257.676v.009c0 .444-.236.738-.597.892l.693 1.013h-.93l-.585-.88h-.008-.345v.88H.868V.704zm1.336 1.394c.275 0 .432-.133.432-.344v-.009c0-.228-.166-.344-.436-.344h-.527v.697h.531z"/></svg></svg><svg width="2" height="4" xmlns="http://www.w3.org/2000/svg" xmlns:xlink="http://www.w3.org/1999/xlink" xmlns:svgjs="http://svgjs.com/svgjs" fill="#9fab1d" x="207" y="94"><svg xmlns="http://www.w3.org/2000/svg" xmlns:xlink="http://www.w3.org/1999/xlink" width="2" height="4"><path paint-order="stroke fill markers" fill-rule="evenodd" d="M.284.704h.81v2.905h-.81V.704z"/></svg></svg><svg width="5" height="4" xmlns="http://www.w3.org/2000/svg" xmlns:xlink="http://www.w3.org/1999/xlink" xmlns:svgjs="http://svgjs.com/svgjs" fill="#9fab1d" x="208" y="94"><svg xmlns="http://www.w3.org/2000/svg" xmlns:xlink="http://www.w3.org/1999/xlink" width="5" height="4"><path paint-order="stroke fill markers" fill-rule="evenodd" d="M2.044.683h.776l1.237 2.926h-.864l-.211-.52h-1.12l-.208.52H.807L2.044.683zm.705 1.78l-.323-.826-.328.826h.651z"/></svg></svg><svg width="2" height="2" xmlns="http://www.w3.org/2000/svg" xmlns:xlink="http://www.w3.org/1999/xlink" xmlns:svgjs="http://svgjs.com/svgjs" fill="#9fab1d" x="214" y="95"><svg xmlns="http://www.w3.org/2000/svg" xmlns:xlink="http://www.w3.org/1999/xlink" width="2" height="2"><path paint-order="stroke fill markers" fill-rule="evenodd" d="M.398 1.152v-.009a.7.7 0 0 1 .7-.697.7.7 0 0 1 .702.697v.009a.7.7 0 0 1-.701.697.7.7 0 0 1-.701-.697z"/></svg></svg><svg width="3" height="4" xmlns="http://www.w3.org/2000/svg" xmlns:xlink="http://www.w3.org/1999/xlink" xmlns:svgjs="http://svgjs.com/svgjs" fill="#9fab1d" x="218" y="94"><svg xmlns="http://www.w3.org/2000/svg" xmlns:xlink="http://www.w3.org/1999/xlink" width="3" height="4"><path paint-order="stroke fill markers" fill-rule="evenodd" d="M.374.704h2.324v.705h-1.52v.494h1.375v.668H1.179v1.038H.374V.704z"/></svg></svg><svg width="4" height="4" xmlns="http://www.w3.org/2000/svg" xmlns:xlink="http://www.w3.org/1999/xlink" xmlns:svgjs="http://svgjs.com/svgjs" fill="#9fab1d" x="221" y="94"><svg xmlns="http://www.w3.org/2000/svg" xmlns:xlink="http://www.w3.org/1999/xlink" width="4" height="4"><path paint-order="stroke fill markers" fill-rule="evenodd" d="M.478.704h1.374c.443 0 .75.116.946.315.17.166.257.39.257.676v.009c0 .444-.236.738-.597.892l.693 1.013h-.93l-.585-.88h-.008-.345v.88H.478V.704zm1.337 1.394c.274 0 .43-.133.43-.344v-.009c0-.228-.165-.344-.435-.344h-.527v.697h.532z"/></svg></svg><svg width="4" height="4" xmlns="http://www.w3.org/2000/svg" xmlns:xlink="http://www.w3.org/1999/xlink" xmlns:svgjs="http://svgjs.com/svgjs" fill="#9fab1d" x="224" y="94"><svg xmlns="http://www.w3.org/2000/svg" xmlns:xlink="http://www.w3.org/1999/xlink" width="4" height="4"><path paint-order="stroke fill markers" fill-rule="evenodd" d="M.84 2.334V.704h.818v1.614c0 .419.211.618.535.618.324 0 .535-.19.535-.597V.704h.818v1.61c0 .938-.535 1.348-1.361 1.348S.84 3.243.84 2.334z"/></svg></svg><svg width="3" height="4" xmlns="http://www.w3.org/2000/svg" xmlns:xlink="http://www.w3.org/1999/xlink" xmlns:svgjs="http://svgjs.com/svgjs" fill="#9fab1d" x="228" y="94"><svg xmlns="http://www.w3.org/2000/svg" xmlns:xlink="http://www.w3.org/1999/xlink" width="3" height="4"><path paint-order="stroke fill markers" fill-rule="evenodd" d="M1.148 1.41H.277V.703h2.548v.705h-.871v2.2h-.806v-2.2z"/></svg></svg><svg width="5" height="4" xmlns="http://www.w3.org/2000/svg" xmlns:xlink="http://www.w3.org/1999/xlink" xmlns:svgjs="http://svgjs.com/svgjs" fill="#9fab1d" x="230" y="94"><svg xmlns="http://www.w3.org/2000/svg" xmlns:xlink="http://www.w3.org/1999/xlink" width="5" height="4"><path paint-order="stroke fill markers" fill-rule="evenodd" d="M2.224.683H3l1.237 2.926h-.864l-.211-.52h-1.12l-.208.52H.987L2.224.683zm.705 1.78l-.323-.826-.328.826h.651z"/></svg></svg><svg width="4" height="4" xmlns="http://www.w3.org/2000/svg" xmlns:xlink="http://www.w3.org/1999/xlink" xmlns:svgjs="http://svgjs.com/svgjs" fill="#9fab1d" x="234" y="94"><svg xmlns="http://www.w3.org/2000/svg" xmlns:xlink="http://www.w3.org/1999/xlink" width="4" height="4"><path paint-order="stroke fill markers" fill-rule="evenodd" d="M.934.704h1.373c.444 0 .752.116.947.315.17.166.257.39.257.676v.009c0 .444-.237.738-.598.892l.694 1.013h-.93l-.585-.88h-.008-.345v.88H.934V.704zM2.27 2.098c.274 0 .432-.133.432-.344v-.009c0-.228-.166-.344-.436-.344H1.74v.697h.531z"/></svg></svg><svg width="2" height="4" xmlns="http://www.w3.org/2000/svg" xmlns:xlink="http://www.w3.org/1999/xlink" xmlns:svgjs="http://svgjs.com/svgjs" fill="#9fab1d" x="238" y="94"><svg xmlns="http://www.w3.org/2000/svg" xmlns:xlink="http://www.w3.org/1999/xlink" width="2" height="4"><path paint-order="stroke fill markers" fill-rule="evenodd" d="M.35.704h.809v2.905h-.81V.704z"/></svg></svg><svg width="5" height="4" xmlns="http://www.w3.org/2000/svg" xmlns:xlink="http://www.w3.org/1999/xlink" xmlns:svgjs="http://svgjs.com/svgjs" fill="#9fab1d" x="239" y="94"><svg xmlns="http://www.w3.org/2000/svg" xmlns:xlink="http://www.w3.org/1999/xlink" width="5" height="4"><path paint-order="stroke fill markers" fill-rule="evenodd" d="M2.11.683h.776l1.236 2.926H3.26l-.212-.52h-1.12l-.207.52H.873L2.11.683zm.705 1.78l-.323-.826-.328.826h.651z"/></svg></svg></svg><svg width="22" height="4" xmlns="http://www.w3.org/2000/svg" xmlns:xlink="http://www.w3.org/1999/xlink" xmlns:svgjs="http://svgjs.com/svgjs" viewBox="202 99 22 4" x="202" y="99"><svg width="4" height="4" xmlns="http://www.w3.org/2000/svg" xmlns:xlink="http://www.w3.org/1999/xlink" xmlns:svgjs="http://svgjs.com/svgjs" fill="#9fab1d" x="202" y="99"><svg xmlns="http://www.w3.org/2000/svg" xmlns:xlink="http://www.w3.org/1999/xlink" width="4" height="4"><path paint-order="stroke fill markers" fill-rule="evenodd" d="M3.075 1.843c0 .644-.486 1.044-1.258 1.044h-.494v.741H.522V.795h1.295c.772 0 1.258.401 1.258 1.048zm-.81 0c0-.263-.165-.416-.497-.416h-.445v.83h.445c.332 0 .498-.155.498-.414z"/></svg></svg><svg width="4" height="4" xmlns="http://www.w3.org/2000/svg" xmlns:xlink="http://www.w3.org/1999/xlink" xmlns:svgjs="http://svgjs.com/svgjs" fill="#9fab1d" x="205" y="99"><svg xmlns="http://www.w3.org/2000/svg" xmlns:xlink="http://www.w3.org/1999/xlink" width="4" height="4"><path paint-order="stroke fill markers" fill-rule="evenodd" d="M2.423 3.077H1.225l-.222.551H.186L1.436.795h.789l1.254 2.833h-.833l-.223-.55zm-.235-.59l-.364-.907-.364.907h.728z"/></svg></svg><svg width="4" height="4" xmlns="http://www.w3.org/2000/svg" xmlns:xlink="http://www.w3.org/1999/xlink" xmlns:svgjs="http://svgjs.com/svgjs" fill="#9fab1d" x="208" y="99"><svg xmlns="http://www.w3.org/2000/svg" xmlns:xlink="http://www.w3.org/1999/xlink" width="4" height="4"><path paint-order="stroke fill markers" fill-rule="evenodd" d="M.91.795h1.34c.938 0 1.581.547 1.581 1.416 0 .87-.643 1.417-1.582 1.417H.91V.795zm1.307 2.193c.481 0 .805-.287.805-.777 0-.489-.324-.776-.805-.776H1.71v1.553h.506z"/></svg></svg><svg width="4" height="4" xmlns="http://www.w3.org/2000/svg" xmlns:xlink="http://www.w3.org/1999/xlink" xmlns:svgjs="http://svgjs.com/svgjs" fill="#9fab1d" x="212" y="99"><svg xmlns="http://www.w3.org/2000/svg" xmlns:xlink="http://www.w3.org/1999/xlink" width="4" height="4"><path paint-order="stroke fill markers" fill-rule="evenodd" d="M2.313 3.077H1.115l-.222.551H.076L1.326.795h.789l1.254 2.833h-.833l-.223-.55zm-.235-.59l-.364-.907-.364.907h.728z"/></svg></svg><svg width="4" height="4" xmlns="http://www.w3.org/2000/svg" xmlns:xlink="http://www.w3.org/1999/xlink" xmlns:svgjs="http://svgjs.com/svgjs" fill="#9fab1d" x="215" y="99"><svg xmlns="http://www.w3.org/2000/svg" xmlns:xlink="http://www.w3.org/1999/xlink" width="4" height="4"><path paint-order="stroke fill markers" fill-rule="evenodd" d="M2.038 2.875H1.6v.753H.8V.795h1.294c.773 0 1.259.401 1.259 1.048 0 .417-.202.725-.554.895l.61.89h-.857l-.514-.753zm.008-1.448H1.6v.83h.445c.331 0 .497-.155.497-.414 0-.263-.166-.416-.497-.416z"/></svg></svg><svg width="2" height="4" xmlns="http://www.w3.org/2000/svg" xmlns:xlink="http://www.w3.org/1999/xlink" xmlns:svgjs="http://svgjs.com/svgjs" fill="#9fab1d" x="218" y="99"><svg xmlns="http://www.w3.org/2000/svg" xmlns:xlink="http://www.w3.org/1999/xlink" width="2" height="4"><path paint-order="stroke fill markers" fill-rule="evenodd" d="M.998.795h.8v2.833h-.8V.795z"/></svg></svg><svg width="4" height="4" xmlns="http://www.w3.org/2000/svg" xmlns:xlink="http://www.w3.org/1999/xlink" xmlns:svgjs="http://svgjs.com/svgjs" fill="#9fab1d" x="220" y="99"><svg xmlns="http://www.w3.org/2000/svg" width="4" height="4"><path paint-order="stroke fill markers" fill-rule="evenodd" d="M2.47 3.077H1.273l-.223.551H.233L1.483.795h.789l1.254 2.833h-.833l-.223-.55zm-.234-.59L1.87 1.58l-.364.907h.729z"/></svg></svg></svg></svg>